<?xml version="1.0" encoding="utf-8"?>
<!-- Generator: Adobe Illustrator 27.0.0, SVG Export Plug-In . SVG Version: 6.00 Build 0)  -->
<svg version="1.1" id="レイヤー_1" xmlns="http://www.w3.org/2000/svg" xmlns:xlink="http://www.w3.org/1999/xlink" x="0px"
	 y="0px" viewBox="0 0 25 26" style="enable-background:new 0 0 25 26;" xml:space="preserve">
<style type="text/css">
	.st0{fill:url(#SVGID_1_);}
	.st1{fill:#FFFFFF;}
	.st2{font-family:'ArialRoundedMTBold';}
	.st3{font-size:10px;}
</style>
<linearGradient id="SVGID_1_" gradientUnits="userSpaceOnUse" x1="2.635" y1="21.6186" x2="22.1411" y2="7.636" gradientTransform="matrix(1 0 0 -1 0 28)">
	<stop  offset="0" style="stop-color:#0071BF"/>
	<stop  offset="0.3015" style="stop-color:#0053A7"/>
	<stop  offset="0.9567" style="stop-color:#00056A"/>
	<stop  offset="1" style="stop-color:#000066"/>
</linearGradient>
<path class="st0" d="M24.5,10.8c0-2.8-2-5.1-4.6-5.6C18.4,2.7,15.7,1,12.6,1c-2.3,0-4.5,0.9-6,2.5c-0.1,0-0.2,0-0.3,0
	C3.2,3.5,0.7,6,0.7,9.2c0,0.9,0.2,1.8,0.6,2.6c-0.4,1-0.7,2.2-0.7,3.3c0,4.6,3.7,8.3,8.3,8.3c0.1,0,0.2,0,0.3,0
	c1.2,1,2.8,1.6,4.5,1.6c2.4,0,3.9-0.4,5.2-2.3l5.7,2.3l-2.4-5.7c1.5-1.3,1.7-2.5,1.7-4.6c0-0.4,0-0.8-0.1-1.1
	C24.2,12.8,24.5,11.8,24.5,10.8z"/>
<g id="レイヤー_2_00000038379946245694118110000012038459161049638291_">
</g>
<text transform="matrix(0.9583 0 0 1 2.074 14.8789)" class="st1 st2 st3">slug</text>
</svg>
