<?xml version="1.0" encoding="utf-8"?>
<!-- Generator: Adobe Illustrator 27.0.0, SVG Export Plug-In . SVG Version: 6.00 Build 0)  -->
<svg version="1.1" id="レイヤー_1" xmlns="http://www.w3.org/2000/svg" xmlns:xlink="http://www.w3.org/1999/xlink" x="0px"
	 y="0px" viewBox="0 0 25 26" style="enable-background:new 0 0 25 26;" xml:space="preserve">
<style type="text/css">
	.st0{fill:url(#SVGID_1_);}
	.st1{enable-background:new    ;}
	.st2{fill:#FFFFFF;}
</style>
<g id="レイヤー_2_00000038379946245694118110000012038459161049638291_">
</g>
<g>
	
		<linearGradient id="SVGID_1_" gradientUnits="userSpaceOnUse" x1="1.1768" y1="24.8479" x2="22.3496" y2="3.6751" gradientTransform="matrix(1 0 0 -1 0 28)">
		<stop  offset="0" style="stop-color:#0071BF"/>
		<stop  offset="0.3015" style="stop-color:#0053A7"/>
		<stop  offset="0.9567" style="stop-color:#00056A"/>
		<stop  offset="1" style="stop-color:#000066"/>
	</linearGradient>
	<path class="st0" d="M24.7,21.8H2.3c-0.3,0-0.5,0.2-0.7,0.6L0.3,25C0.2,25.2,0,25,0,24.6V5c0-0.6,0.3-1.1,0.6-1.1h24.1
		c0.3,0,0.6,0.6,0.6,1.1v15.7C25.3,21.3,25,21.8,24.7,21.8z"/>
</g>
<g class="st1">
	<path class="st2" d="M6.3,13.9c0,0.4-0.1,0.8-0.3,1.1s-0.5,0.6-0.9,0.7s-0.9,0.2-1.5,0.2c-0.6,0-1-0.1-1.4-0.3S1.5,15.3,1.4,15
		s-0.3-0.5-0.3-0.8c0-0.2,0.1-0.3,0.2-0.5s0.3-0.2,0.5-0.2c0.2,0,0.3,0,0.4,0.1c0.1,0.1,0.2,0.2,0.2,0.3c0.2,0.3,0.3,0.5,0.6,0.6
		c0.2,0.1,0.5,0.2,0.9,0.2c0.3,0,0.6-0.1,0.8-0.2c0.2-0.1,0.3-0.3,0.3-0.5c0-0.3-0.1-0.5-0.3-0.6s-0.5-0.3-1-0.4
		c-0.5-0.1-1-0.3-1.3-0.4c-0.3-0.2-0.6-0.3-0.8-0.6c-0.2-0.2-0.3-0.5-0.3-0.9c0-0.3,0.1-0.6,0.3-0.9c0.2-0.3,0.5-0.5,0.8-0.7
		S3,9.4,3.5,9.4c0.4,0,0.8,0,1.1,0.1c0.3,0.1,0.6,0.2,0.8,0.3s0.4,0.3,0.5,0.5S6,10.7,6,10.9c0,0.2-0.1,0.3-0.2,0.5
		c-0.1,0.1-0.3,0.2-0.5,0.2c-0.2,0-0.3,0-0.4-0.1S4.7,11.2,4.6,11c-0.1-0.2-0.3-0.3-0.4-0.4s-0.4-0.1-0.6-0.1
		c-0.3,0-0.5,0.1-0.7,0.2c-0.2,0.1-0.3,0.3-0.3,0.5c0,0.2,0.1,0.3,0.2,0.4s0.3,0.2,0.5,0.3c0.2,0.1,0.5,0.2,0.9,0.3
		c0.5,0.1,0.9,0.3,1.2,0.4s0.5,0.4,0.7,0.6S6.3,13.6,6.3,13.9z"/>
	<path class="st2" d="M7.6,15V8c0-0.3,0.1-0.6,0.2-0.7s0.3-0.2,0.6-0.2c0.2,0,0.4,0.1,0.6,0.2C9.1,7.5,9.2,7.7,9.2,8V15
		c0,0.3-0.1,0.6-0.2,0.7s-0.3,0.2-0.6,0.2c-0.2,0-0.4-0.1-0.5-0.3C7.7,15.5,7.6,15.3,7.6,15z"/>
	<path class="st2" d="M14.7,15v-0.2c-0.2,0.2-0.4,0.4-0.6,0.6c-0.2,0.2-0.4,0.3-0.7,0.4c-0.2,0.1-0.5,0.1-0.8,0.1
		c-0.4,0-0.7-0.1-1-0.2S11.2,15.3,11,15c-0.2-0.3-0.3-0.8-0.3-1.5v-3.2c0-0.3,0.1-0.6,0.2-0.7c0.1-0.2,0.3-0.2,0.6-0.2
		c0.2,0,0.4,0.1,0.6,0.2c0.1,0.2,0.2,0.4,0.2,0.7V13c0,0.4,0,0.7,0.1,0.9c0.1,0.3,0.2,0.4,0.3,0.6s0.4,0.2,0.6,0.2
		c0.3,0,0.5-0.1,0.7-0.2c0.2-0.2,0.4-0.4,0.5-0.6c0.1-0.2,0.1-0.7,0.1-1.5v-1.9c0-0.3,0.1-0.6,0.2-0.7c0.1-0.2,0.3-0.2,0.6-0.2
		s0.4,0.1,0.6,0.2s0.2,0.4,0.2,0.7V15c0,0.3-0.1,0.5-0.2,0.7s-0.3,0.2-0.5,0.2c-0.2,0-0.4-0.1-0.5-0.2S14.7,15.3,14.7,15z"/>
	<path class="st2" d="M23.3,10.6v4.6c0,0.5-0.1,1-0.2,1.4s-0.3,0.7-0.5,0.9s-0.6,0.4-0.9,0.6s-0.9,0.2-1.4,0.2c-0.5,0-1-0.1-1.4-0.2
		c-0.4-0.2-0.7-0.4-1-0.6s-0.3-0.5-0.3-0.8c0-0.2,0.1-0.4,0.2-0.5c0.1-0.1,0.3-0.2,0.5-0.2c0.2,0,0.4,0.1,0.6,0.3
		c0.1,0.1,0.2,0.2,0.3,0.3s0.2,0.2,0.3,0.3c0.1,0.1,0.2,0.1,0.4,0.2c0.2,0,0.3,0.1,0.5,0.1c0.4,0,0.7-0.1,0.9-0.2
		c0.2-0.1,0.4-0.3,0.5-0.5s0.1-0.4,0.2-0.7s0-0.6,0-1.1c-0.2,0.3-0.5,0.6-0.8,0.8c-0.3,0.2-0.7,0.3-1.1,0.3c-0.5,0-1-0.1-1.3-0.4
		c-0.4-0.3-0.7-0.7-0.9-1.1c-0.2-0.5-0.3-1.1-0.3-1.7c0-0.5,0.1-0.9,0.2-1.3c0.1-0.4,0.3-0.7,0.5-1s0.5-0.5,0.8-0.6s0.6-0.2,1-0.2
		c0.4,0,0.8,0.1,1.1,0.3c0.3,0.2,0.6,0.4,0.9,0.8v-0.2c0-0.3,0.1-0.5,0.2-0.6c0.1-0.2,0.3-0.2,0.5-0.2c0.3,0,0.5,0.1,0.6,0.3
		S23.3,10.2,23.3,10.6z M18.9,12.6c0,0.6,0.1,1.1,0.4,1.5c0.3,0.3,0.6,0.5,1.1,0.5c0.3,0,0.5-0.1,0.7-0.2c0.2-0.1,0.4-0.4,0.6-0.6
		c0.1-0.3,0.2-0.6,0.2-1c0-0.7-0.1-1.2-0.4-1.5c-0.3-0.4-0.6-0.5-1.1-0.5c-0.4,0-0.8,0.2-1.1,0.5C19,11.5,18.9,12,18.9,12.6z"/>
</g>
</svg>
